<?xml version="1.0" encoding="UTF-8" standalone="no"?>
<!DOCTYPE svg PUBLIC "-//W3C//DTD SVG 1.1//EN" "http://www.w3.org/Graphics/SVG/1.1/DTD/svg11.dtd">
<svg width="100%" height="100%" viewBox="0 0 2497 743" version="1.1" xmlns="http://www.w3.org/2000/svg" xmlns:xlink="http://www.w3.org/1999/xlink" xml:space="preserve" xmlns:serif="http://www.serif.com/" style="fill-rule:evenodd;clip-rule:evenodd;stroke-linejoin:round;stroke-miterlimit:2;">
    <g transform="matrix(1,0,0,1,-241.496783,-2042.580943)">
        <g transform="matrix(0.98714,0,0,2.004558,0,-1524.184541)">
            <g transform="matrix(1,0,0,0.496425,-0,1184.929856)">
                <g transform="matrix(1.464537,0,0,1.63066,-399.301296,-983.500829)">
                    <g transform="matrix(0.514242,-0.296898,0.448288,0.776458,-528.982397,1238.984222)">
                        <path d="M1441.338,694.129L1441.338,1201.361L1278.59,1201.361L1278.59,748.406C1278.59,717.592 1316.115,694.129 1365.399,694.129L1441.338,694.129Z" style="fill:rgb(19,19,19);"/>
                    </g>
                    <g transform="matrix(-0.514242,-0.296898,-0.448288,0.776458,1919.197599,1238.984222)">
                        <path d="M1278.59,694.129C1320.198,694.129 1361.629,705.191 1392.638,724.579C1423.647,743.967 1441.338,769.872 1441.338,795.887L1441.338,1201.361L1278.59,1201.361L1278.59,694.129L1278.59,694.129Z" style="fill:rgb(19,19,19);"/>
                    </g>
                    <g transform="matrix(1.136932,0,0,1.136932,-159.31031,-169.977813)">
                        <path d="M726.858,1725.837L776.166,1725.837L751.853,1707.498L726.858,1725.837Z" style="fill:rgb(19,19,19);"/>
                    </g>
                </g>
                <g transform="matrix(1.191,0,0,1.181457,75.668698,-163.788569)">
                    <path d="M869.888,1347.41C989.201,1347.41 1086.069,1444.277 1086.069,1563.591C1086.069,1682.904 989.201,1779.772 869.888,1779.772C750.574,1779.772 653.707,1682.904 653.707,1563.591C653.707,1444.277 750.574,1347.41 869.888,1347.41ZM869.888,1480.793C824.19,1480.793 787.089,1517.893 787.089,1563.591C787.089,1609.289 824.19,1646.389 869.888,1646.389C915.586,1646.389 952.686,1609.289 952.686,1563.591C952.686,1517.893 915.586,1480.793 869.888,1480.793Z" style="fill:rgb(19,19,19);"/>
                </g>
                <g transform="matrix(1.643831,0,0,1.63066,-1156.801776,-894.068312)">
                    <g transform="matrix(0.593795,0,0,0.896576,901.365253,660.224019)">
                        <path d="M1441.338,694.129L1441.338,1201.361L1278.59,1201.361L1278.59,801.915C1278.59,773.329 1295.736,745.913 1326.258,725.699C1356.779,705.485 1398.174,694.129 1441.338,694.129L1441.338,694.129Z" style="fill:rgb(19,19,19);"/>
                    </g>
                    <g transform="matrix(-0,0.593795,-0.463823,0,2290.047674,881.476703)">
                        <path d="M1441.338,694.129L1441.338,1201.361L1278.59,1201.361L1278.59,902.482C1278.59,847.223 1295.736,794.228 1326.258,755.154C1356.779,716.08 1398.174,694.129 1441.338,694.129L1441.338,694.129Z" style="fill:rgb(19,19,19);"/>
                    </g>
                </g>
                <g transform="matrix(0.976099,0,0,1.007067,141.674063,729.084803)">
                    <path d="M1441.338,694.129L1441.338,1201.361L1278.59,1201.361L1278.59,850.608C1278.59,809.107 1295.736,769.306 1326.258,739.961C1356.779,710.615 1398.174,694.129 1441.338,694.129L1441.338,694.129Z" style="fill:rgb(19,19,19);"/>
                </g>
                <g transform="matrix(2.665051,0,0,2.643697,-3977.650058,-1367.64287)">
                    <path d="M2348.987,1223.273C2329.639,1240.364 2304.224,1250.74 2276.404,1250.74C2215.851,1250.74 2166.69,1201.579 2166.69,1141.026C2166.69,1080.473 2215.851,1031.312 2276.404,1031.312C2304.224,1031.312 2329.639,1041.688 2348.987,1058.779C2368.335,1041.688 2393.75,1031.312 2421.57,1031.312C2482.123,1031.312 2531.284,1080.473 2531.284,1141.026C2531.284,1201.579 2482.123,1250.74 2421.57,1250.74C2393.75,1250.74 2368.335,1240.364 2348.987,1223.273ZM2376.063,1095.109C2382.517,1109.081 2386.119,1124.636 2386.119,1141.026C2386.119,1149.324 2385.196,1157.408 2383.446,1165.181L2324.064,1095.59C2312.149,1082.859 2295.199,1074.897 2276.404,1074.897C2240.38,1074.897 2211.133,1104.145 2211.133,1140.169C2211.133,1176.193 2240.38,1205.44 2276.404,1205.44C2294.095,1205.44 2310.151,1198.387 2321.912,1186.943C2315.457,1172.971 2311.856,1157.416 2311.856,1141.026C2311.856,1132.728 2312.779,1124.644 2314.528,1116.871L2373.911,1186.462C2385.825,1199.193 2402.775,1207.155 2421.57,1207.155C2457.594,1207.155 2486.841,1177.907 2486.841,1141.883C2486.841,1105.859 2457.594,1076.612 2421.57,1076.612C2403.88,1076.612 2387.824,1083.665 2376.063,1095.109Z" style="fill:rgb(255,211,89);"/>
                </g>
            </g>
        </g>
    </g>
</svg>
