<?xml version="1.0" encoding="UTF-8" standalone="no"?>
<!DOCTYPE svg PUBLIC "-//W3C//DTD SVG 1.1//EN" "http://www.w3.org/Graphics/SVG/1.1/DTD/svg11.dtd">
<svg width="100%" height="100%" viewBox="0 0 862 523" version="1.1" xmlns="http://www.w3.org/2000/svg" xmlns:xlink="http://www.w3.org/1999/xlink" xml:space="preserve" xmlns:serif="http://www.serif.com/" style="fill-rule:evenodd;clip-rule:evenodd;stroke-linejoin:round;stroke-miterlimit:2;">
    <g transform="matrix(1,0,0,1,-5634.295778,-2100.969598)">
        <g transform="matrix(1.338499,0,0,2.017344,-1007.583757,0)">
            <g transform="matrix(1.743939,0,0,1.157096,1187.343524,-149.395214)">
                <path d="M2348.987,1223.273C2329.639,1240.364 2304.224,1250.74 2276.404,1250.74C2215.851,1250.74 2166.69,1201.579 2166.69,1141.026C2166.69,1080.473 2215.851,1031.312 2276.404,1031.312C2304.224,1031.312 2329.639,1041.688 2348.987,1058.779C2368.335,1041.688 2393.75,1031.312 2421.57,1031.312C2482.123,1031.312 2531.284,1080.473 2531.284,1141.026C2531.284,1201.579 2482.123,1250.74 2421.57,1250.74C2393.75,1250.74 2368.335,1240.364 2348.987,1223.273ZM2376.063,1095.109C2382.517,1109.081 2386.119,1124.636 2386.119,1141.026C2386.119,1149.324 2385.196,1157.408 2383.446,1165.181L2324.064,1095.59C2312.149,1082.859 2295.199,1074.897 2276.404,1074.897C2240.38,1074.897 2211.133,1104.145 2211.133,1140.169C2211.133,1176.193 2240.38,1205.44 2276.404,1205.44C2294.095,1205.44 2310.151,1198.387 2321.912,1186.943C2315.457,1172.971 2311.856,1157.416 2311.856,1141.026C2311.856,1132.728 2312.779,1124.644 2314.528,1116.871L2373.911,1186.462C2385.825,1199.193 2402.775,1207.155 2421.57,1207.155C2457.594,1207.155 2486.841,1177.907 2486.841,1141.883C2486.841,1105.859 2457.594,1076.612 2421.57,1076.612C2403.88,1076.612 2387.824,1083.665 2376.063,1095.109Z" style="fill:rgb(255,211,89);"/>
            </g>
        </g>
    </g>
</svg>
