<?xml version="1.0" encoding="UTF-8" standalone="no"?><!DOCTYPE svg PUBLIC "-//W3C//DTD SVG 1.1//EN" "http://www.w3.org/Graphics/SVG/1.1/DTD/svg11.dtd"><svg width="100%" height="100%" viewBox="0 0 2497 743" version="1.1" xmlns="http://www.w3.org/2000/svg" xmlns:xlink="http://www.w3.org/1999/xlink" xml:space="preserve" xmlns:serif="http://www.serif.com/" style="fill-rule:evenodd;clip-rule:evenodd;stroke-linejoin:round;stroke-miterlimit:2;"><g><g><path d="M120.994,20.46l328.733,639.088l-120.994,78.408c-0,0 -208.754,-405.838 -293.556,-570.701c-19.971,-38.825 -7.279,-86.466 29.361,-110.209c28.843,-18.691 56.456,-36.585 56.456,-36.585Z" style="fill:#f0e7d5;"/><path d="M738.512,98.867c-30.933,-20.046 -68.904,-26.069 -104.522,-16.58c-35.618,9.489 -65.56,33.604 -82.42,66.383c-95.967,186.569 -262.784,510.877 -262.784,510.877l120.994,78.408l328.733,-639.088c-0,0 -0,-0 -0,-0Z" style="fill:#f0e7d5;"/><path d="M328.733,737.955l81.046,0l-39.962,-33.833l-41.084,33.833Z" style="fill:#f0e7d5;"/></g><g><path d="M855.912,229.635c140.275,0 254.16,113.885 254.16,254.16c0,140.275 -113.885,254.16 -254.16,254.16c-140.275,0 -254.16,-113.885 -254.16,-254.16c0,-140.275 113.885,-254.16 254.16,-254.16Zm-0,156.816c-53.726,0 -97.345,43.619 -97.345,97.345c0,53.726 43.619,97.345 97.345,97.345c53.726,0 97.345,-43.619 97.345,-97.345c0,-53.726 -43.619,-97.345 -97.345,-97.345Z" style="fill:#f0e7d5;"/></g><g><path d="M1468.011,0l0,737.955l-156.816,0l0,-581.14c-0,-41.59 16.522,-81.476 45.93,-110.885c29.409,-29.409 69.295,-45.93 110.885,-45.93l0.001,0Z" style="fill:#f0e7d5;"/><path d="M1810.188,737.955l-381.764,0l0,-156.816l224.949,0c41.59,-0 81.476,16.522 110.885,45.93c29.409,29.409 45.93,69.295 45.93,110.885l0,0.001Z" style="fill:#f0e7d5;"/></g><path d="M1287.15,229.635l0,508.321l-156.816,0l0,-351.506c-0,-41.59 16.522,-81.476 45.93,-110.885c29.409,-29.409 69.295,-45.93 110.885,-45.93l0.001,0Z" style="fill:#f0e7d5;"/><path d="M2011.67,665.695c-50.9,44.961 -117.762,72.26 -190.949,72.26c-159.301,0 -288.634,-129.332 -288.634,-288.634c0,-159.301 129.332,-288.634 288.634,-288.634c73.187,0 140.049,27.298 190.949,72.26c50.9,-44.961 117.762,-72.26 190.949,-72.26c159.301,0 288.634,129.332 288.634,288.634c0,159.301 -129.332,288.634 -288.634,288.634c-73.187,0 -140.049,-27.298 -190.949,-72.26Zm71.23,-337.17c16.98,36.756 26.455,77.679 26.455,120.796c0,21.83 -2.429,43.097 -7.03,63.546l-156.223,-183.079c-31.344,-33.492 -75.936,-54.436 -125.381,-54.436c-94.772,0 -171.714,76.943 -171.714,171.714c0,94.772 76.943,171.714 171.714,171.714c46.539,0 88.779,-18.554 119.719,-48.663c-16.98,-36.756 -26.455,-77.679 -26.455,-120.796c0,-21.83 2.429,-43.097 7.03,-63.546l156.223,183.079c31.344,33.492 75.936,54.436 125.381,54.436c94.772,0 171.714,-76.943 171.714,-171.714c0,-94.772 -76.943,-171.714 -171.714,-171.714c-46.539,0 -88.779,18.554 -119.719,48.663Z" style="fill:#e9c42f;"/></g></svg>