<?xml version="1.0" encoding="UTF-8" standalone="no"?><!DOCTYPE svg PUBLIC "-//W3C//DTD SVG 1.1//EN" "http://www.w3.org/Graphics/SVG/1.1/DTD/svg11.dtd"><svg width="100%" height="100%" viewBox="0 0 3588 2176" version="1.1" xmlns="http://www.w3.org/2000/svg" xmlns:xlink="http://www.w3.org/1999/xlink" xml:space="preserve" xmlns:serif="http://www.serif.com/" style="fill-rule:evenodd;clip-rule:evenodd;stroke-linejoin:round;stroke-miterlimit:2;"><path d="M1793.871,1887.867c-188.181,166.224 -435.371,267.148 -705.947,267.148c-588.943,0 -1067.091,-478.147 -1067.091,-1067.091c0,-588.943 478.147,-1067.091 1067.091,-1067.091c270.576,0 517.766,100.924 705.947,267.148c188.181,-166.224 435.371,-267.148 705.947,-267.148c588.943,0 1067.091,478.147 1067.091,1067.091c0,588.943 -478.147,1067.091 -1067.091,1067.091c-270.576,0 -517.766,-100.924 -705.947,-267.148Zm263.339,-1246.531c62.775,135.89 97.804,287.181 97.804,446.589c0,80.706 -8.979,159.332 -25.992,234.932l-577.561,-676.851c-115.88,-123.823 -280.738,-201.253 -463.538,-201.253c-350.375,0 -634.835,284.46 -634.835,634.835c0,350.375 284.46,634.835 634.835,634.835c172.058,0 328.22,-68.597 442.607,-179.91c-62.775,-135.89 -97.804,-287.181 -97.804,-446.589c0,-80.706 8.979,-159.332 25.992,-234.932l577.561,676.851c115.88,123.823 280.738,201.253 463.538,201.253c350.375,0 634.835,-284.46 634.835,-634.835c0,-350.375 -284.46,-634.835 -634.835,-634.835c-172.058,0 -328.22,68.597 -442.607,179.91Z" style="fill:currentColor;"/></svg>
