<svg viewBox="0 0 2471 743" xmlns="http://www.w3.org/2000/svg">
    <path d="M667.078,1792.181L464.023,1440.48C450.21,1416.554 458.989,1387.195 484.332,1372.562L523.383,1350.016L695.108,1647.451L821.215,1429.027C832.877,1408.827 853.588,1393.966 878.225,1388.118C902.863,1382.271 929.127,1385.982 950.524,1398.336L723.137,1792.181L667.078,1792.181ZM1031.73,1478.923C1128.759,1478.923 1207.534,1549.106 1207.534,1635.552C1207.534,1721.998 1128.759,1792.181 1031.73,1792.181C934.701,1792.181 855.926,1721.998 855.926,1635.552C855.926,1549.106 934.701,1478.923 1031.73,1478.923ZM1031.73,1575.562C994.567,1575.562 964.396,1602.442 964.396,1635.552C964.396,1668.661 994.567,1695.541 1031.73,1695.541C1068.893,1695.541 1099.064,1668.661 1099.064,1635.552C1099.064,1602.442 1068.893,1575.562 1031.73,1575.562ZM1427.74,1792.181L1346.652,1792.181L1346.652,1434.047C1346.652,1408.417 1358.08,1383.836 1378.422,1365.713C1398.764,1347.589 1426.354,1337.408 1455.122,1337.408L1455.122,1695.541L1583.338,1695.541C1612.106,1695.541 1639.696,1705.723 1660.038,1723.846C1680.38,1741.97 1691.808,1766.55 1691.808,1792.18L1455.122,1792.181L1427.74,1792.181ZM1330.02,1478.923L1330.02,1792.181L1221.55,1792.181L1221.55,1575.562C1221.55,1549.931 1232.978,1525.351 1253.32,1507.228C1273.662,1489.104 1301.252,1478.923 1330.02,1478.923Z" fill="black" transform="matrix(1.44, 0, 0, 0.42, -540, -560)"/>
</svg>