<?xml version="1.0" encoding="UTF-8" standalone="no"?>
<!DOCTYPE svg PUBLIC "-//W3C//DTD SVG 1.1//EN" "http://www.w3.org/Graphics/SVG/1.1/DTD/svg11.dtd">
<svg width="100%" height="100%" viewBox="0 0 2471 743" version="1.1" xmlns="http://www.w3.org/2000/svg" xmlns:xlink="http://www.w3.org/1999/xlink" xml:space="preserve" xmlns:serif="http://www.serif.com/" style="fill-rule:evenodd;clip-rule:evenodd;stroke-linejoin:round;stroke-miterlimit:2;">
    <g transform="matrix(1,0,0,1,-267.250026,-431.022286)">
        <g transform="matrix(0.98714,0,0,3.810113,0,-2911.754115)">
            <g transform="matrix(1,0,0,0.261177,0,564.62147)">
                <g transform="matrix(1.464537,0,0,1.63066,-399.301296,-983.500829)">
                    <path class="logo-voi"  d="M667.078,1792.181L464.023,1440.48C450.21,1416.554 458.989,1387.195 484.332,1372.562L523.383,1350.016L695.108,1647.451L821.215,1429.027C832.877,1408.827 853.588,1393.966 878.225,1388.118C902.863,1382.271 929.127,1385.982 950.524,1398.336L723.137,1792.181L667.078,1792.181ZM1031.73,1478.923C1128.759,1478.923 1207.534,1549.106 1207.534,1635.552C1207.534,1721.998 1128.759,1792.181 1031.73,1792.181C934.701,1792.181 855.926,1721.998 855.926,1635.552C855.926,1549.106 934.701,1478.923 1031.73,1478.923ZM1031.73,1575.562C994.567,1575.562 964.396,1602.442 964.396,1635.552C964.396,1668.661 994.567,1695.541 1031.73,1695.541C1068.893,1695.541 1099.064,1668.661 1099.064,1635.552C1099.064,1602.442 1068.893,1575.562 1031.73,1575.562ZM1427.74,1792.181L1346.652,1792.181L1346.652,1434.047C1346.652,1408.417 1358.08,1383.836 1378.422,1365.713C1398.764,1347.589 1426.354,1337.408 1455.122,1337.408L1455.122,1695.541L1583.338,1695.541C1612.106,1695.541 1639.696,1705.723 1660.038,1723.846C1680.38,1741.97 1691.808,1766.55 1691.808,1792.18L1455.122,1792.181L1427.74,1792.181ZM1330.02,1478.923L1330.02,1792.181L1221.55,1792.181L1221.55,1575.562C1221.55,1549.931 1232.978,1525.351 1253.32,1507.228C1273.662,1489.104 1301.252,1478.923 1330.02,1478.923Z" style="fill:rgb(240,231,213);"/>
                </g>
                <g transform="matrix(2.665051,0,0,2.643697,-3977.650058,-1367.64287)">
                    <path class="logo-oo" d="M2348.987,1223.273C2329.639,1240.364 2304.224,1250.74 2276.404,1250.74C2215.851,1250.74 2166.69,1201.579 2166.69,1141.026C2166.69,1080.473 2215.851,1031.312 2276.404,1031.312C2304.224,1031.312 2329.639,1041.688 2348.987,1058.779C2368.335,1041.688 2393.75,1031.312 2421.57,1031.312C2482.123,1031.312 2531.284,1080.473 2531.284,1141.026C2531.284,1201.579 2482.123,1250.74 2421.57,1250.74C2393.75,1250.74 2368.335,1240.364 2348.987,1223.273ZM2376.063,1095.109C2382.517,1109.081 2386.119,1124.636 2386.119,1141.026C2386.119,1149.324 2385.196,1157.408 2383.446,1165.181L2324.064,1095.59C2312.149,1082.859 2295.199,1074.897 2276.404,1074.897C2240.38,1074.897 2211.133,1104.145 2211.133,1140.169C2211.133,1176.193 2240.38,1205.44 2276.404,1205.44C2294.095,1205.44 2310.151,1198.387 2321.912,1186.943C2315.457,1172.971 2311.856,1157.416 2311.856,1141.026C2311.856,1132.728 2312.779,1124.644 2314.528,1116.871L2373.911,1186.462C2385.825,1199.193 2402.775,1207.155 2421.57,1207.155C2457.594,1207.155 2486.841,1177.907 2486.841,1141.883C2486.841,1105.859 2457.594,1076.612 2421.57,1076.612C2403.88,1076.612 2387.824,1083.665 2376.063,1095.109Z" style="fill:rgb(255,211,89);"/>
                </g>
            </g>
        </g>
    </g>
</svg>
